<svg width="14" height="8" viewBox="0 0 14 8" fill="none" xmlns="http://www.w3.org/2000/svg">
<path d="M5.10375 7.6075L3.89687 7.28375L4.38875 5.44688C3.65248 5.17533 2.9682 4.7796 2.36562 4.27688L1.02 5.62313L0.135625 4.73875L1.48187 3.39312C0.721922 2.48297 0.211305 1.3911 0 0.224375L1.23 0C1.70438 2.62625 4.00188 4.61875 6.765 4.61875C9.5275 4.61875 11.8256 2.62625 12.3 0L13.53 0.22375C13.319 1.39064 12.8086 2.48273 12.0487 3.39312L13.3944 4.73875L12.51 5.62313L11.1644 4.27688C10.5618 4.7796 9.87752 5.17533 9.14125 5.44688L9.63313 7.28437L8.42625 7.6075L7.93375 5.77C7.16022 5.90255 6.36978 5.90255 5.59625 5.77L5.10375 7.6075Z" fill="#8C8C8C"/>
</svg>
