<svg width="13" height="10" viewBox="0 0 13 10" fill="none" xmlns="http://www.w3.org/2000/svg">
<path d="M0 5C0.564747 2.15556 3.26051 0 6.5 0C9.73949 0 12.4347 2.15556 13 5C12.4353 7.84444 9.73949 10 6.5 10C3.26051 10 0.565348 7.84444 0 5ZM6.5 7.77778C7.2967 7.77778 8.06078 7.48512 8.62413 6.96419C9.18749 6.44325 9.50397 5.73671 9.50397 5C9.50397 4.26329 9.18749 3.55675 8.62413 3.03581C8.06078 2.51488 7.2967 2.22222 6.5 2.22222C5.7033 2.22222 4.93922 2.51488 4.37587 3.03581C3.81252 3.55675 3.49603 4.26329 3.49603 5C3.49603 5.73671 3.81252 6.44325 4.37587 6.96419C4.93922 7.48512 5.7033 7.77778 6.5 7.77778ZM6.5 6.66667C6.02198 6.66667 5.56353 6.49107 5.22552 6.17851C4.88751 5.86595 4.69762 5.44203 4.69762 5C4.69762 4.55797 4.88751 4.13405 5.22552 3.82149C5.56353 3.50893 6.02198 3.33333 6.5 3.33333C6.97802 3.33333 7.43647 3.50893 7.77448 3.82149C8.11249 4.13405 8.30239 4.55797 8.30239 5C8.30239 5.44203 8.11249 5.86595 7.77448 6.17851C7.43647 6.49107 6.97802 6.66667 6.5 6.66667Z" fill="#8C8C8C"/>
</svg>
