<svg width="23" height="26" viewBox="0 0 23 26" fill="none" xmlns="http://www.w3.org/2000/svg">
<path d="M11.4729 0C12.831 0 14.1572 0.169823 15.4516 0.509468C16.7461 0.849991 17.998 1.3384 19.2076 1.97468C19.3985 2.06245 19.5102 2.18839 19.5424 2.35251C19.5738 2.5175 19.5577 2.67679 19.494 2.83038C19.4304 2.98397 19.3243 3.10464 19.1757 3.1924C19.0272 3.28017 18.8468 3.2692 18.6346 3.15949C17.51 2.56709 16.348 2.11159 15.1486 1.79301C13.9501 1.47531 12.7249 1.31646 11.4729 1.31646C10.2421 1.31646 9.03261 1.46434 7.8443 1.7601C6.65598 2.05674 5.52072 2.52321 4.4385 3.15949C4.26874 3.2692 4.1045 3.29641 3.94577 3.24111C3.7862 3.1867 3.65336 3.07173 3.54726 2.8962C3.4836 2.72067 3.4679 2.56138 3.50015 2.41833C3.53156 2.27615 3.63214 2.15021 3.8019 2.04051C4.99022 1.38228 6.23158 0.877637 7.526 0.526582C8.82041 0.175527 10.136 0 11.4729 0ZM11.4729 3.22532C13.7222 3.22532 15.8442 3.72425 17.8389 4.72213C19.8335 5.72088 21.4993 7.16371 22.8362 9.05063C22.9847 9.2481 23.0322 9.42363 22.9788 9.57722C22.9261 9.7308 22.8362 9.86245 22.7089 9.97215C22.5815 10.0819 22.433 10.131 22.2632 10.1196C22.0935 10.1091 21.9449 10.016 21.8176 9.84051C20.6505 8.12911 19.1494 6.81792 17.3143 5.90694C15.4784 4.99683 13.5312 4.54177 11.4729 4.54177C9.41457 4.54177 7.48356 4.99683 5.67986 5.90694C3.87617 6.81792 2.38017 8.12911 1.19185 9.84051C1.06453 10.038 0.915993 10.1477 0.746234 10.1696C0.576474 10.1916 0.427935 10.1477 0.300615 10.038C0.152076 9.92827 0.0565865 9.79092 0.0141466 9.62592C-0.0282932 9.46181 0.0247566 9.29198 0.173296 9.11646C1.46771 7.25148 3.11225 5.80338 5.10693 4.77215C7.1016 3.74093 9.22359 3.22532 11.4729 3.22532ZM11.4729 9.51139C13.4464 9.51139 15.1439 10.1968 16.5657 11.5677C17.9874 12.9394 18.6983 14.6236 18.6983 16.6203C18.6983 16.8177 18.6397 16.9766 18.5226 17.0968C18.4063 17.2179 18.2527 17.2785 18.0617 17.2785C17.8919 17.2785 17.7434 17.2179 17.6161 17.0968C17.4888 16.9766 17.4251 16.8177 17.4251 16.6203C17.4251 14.9747 16.836 13.5977 15.6579 12.4892C14.4806 11.3816 13.0856 10.8278 11.4729 10.8278C9.86019 10.8278 8.47538 11.3816 7.31847 12.4892C6.16241 13.5977 5.58438 14.9747 5.58438 16.6203C5.58438 18.3975 5.88145 19.9057 6.47561 21.1449C7.06977 22.385 7.93979 23.6304 9.08566 24.881C9.21298 25.0127 9.27664 25.1662 9.27664 25.3418C9.27664 25.5173 9.21298 25.6709 9.08566 25.8025C8.95834 25.9342 8.8098 26 8.64004 26C8.47028 26 8.32174 25.9342 8.19443 25.8025C6.94245 24.4422 5.98246 23.0542 5.31446 21.6386C4.64561 20.2238 4.31118 18.5511 4.31118 16.6203C4.31118 14.6236 5.01144 12.9394 6.41195 11.5677C7.81247 10.1968 9.49945 9.51139 11.4729 9.51139Z" fill="#8C8C8C"/>
<path d="M11.436 15.6609C11.628 15.6609 11.783 15.7268 11.9008 15.8587C12.0177 15.9906 12.0762 16.1445 12.0762 16.3203C12.0762 17.9689 12.6524 19.3208 13.8049 20.3759C14.9573 21.431 16.3018 21.9585 17.8384 21.9585C17.9665 21.9585 18.1479 21.9476 18.3826 21.9256C18.6174 21.9036 18.8628 21.8706 19.1189 21.8267C19.311 21.7827 19.4766 21.81 19.6157 21.9084C19.754 22.0078 19.8445 22.1564 19.8872 22.3542C19.9299 22.5301 19.8979 22.6839 19.7912 22.8158C19.6845 22.9477 19.5457 23.0356 19.375 23.0796C18.9909 23.1895 18.6549 23.2502 18.3673 23.2616C18.0787 23.2722 17.9024 23.2774 17.8384 23.2774C15.939 23.2774 14.2902 22.618 12.8919 21.2991C11.4945 19.9802 10.7957 18.3206 10.7957 16.3203C10.7957 16.1445 10.8542 15.9906 10.9712 15.8587C11.089 15.7268 11.2439 15.6609 11.436 15.6609ZM11.468 12.4296C12.5564 12.4296 13.4848 12.8033 14.253 13.5506C15.0213 14.298 15.4055 15.2212 15.4055 16.3203C15.4055 17.0457 15.6723 17.6559 16.2058 18.1509C16.7393 18.6451 17.3689 18.8921 18.0945 18.8921C18.8201 18.8921 19.439 18.6451 19.9512 18.1509C20.4634 17.6559 20.7195 17.0457 20.7195 16.3203C20.7195 13.7705 19.8125 11.6273 17.9985 9.89072C16.1845 8.15418 14.0183 7.28592 11.5 7.28592C8.98171 7.28592 6.81555 8.15418 5.00152 9.89072C3.1875 11.6273 2.28049 13.7595 2.28049 16.2873C2.28049 16.8149 2.32872 17.4743 2.42518 18.2657C2.52079 19.057 2.75 19.9802 3.1128 21.0353C3.17683 21.2332 3.17171 21.409 3.09744 21.5629C3.02232 21.7168 2.89939 21.8267 2.72866 21.8926C2.55793 21.9586 2.39232 21.9528 2.23183 21.8755C2.07219 21.799 1.96037 21.6728 1.89634 21.4969C1.57622 20.6397 1.34701 19.7877 1.20872 18.9409C1.06957 18.0951 1 17.2215 1 16.3203C1 13.3968 2.02994 10.9458 4.08982 8.9675C6.14884 6.98917 8.60823 6 11.468 6C14.3491 6 16.8247 6.98917 18.8948 8.9675C20.9649 10.9458 22 13.3968 22 16.3203C22 17.4194 21.6214 18.3373 20.8642 19.0741C20.1062 19.8101 19.1829 20.1781 18.0945 20.1781C17.0061 20.1781 16.0726 19.8101 15.2941 19.0741C14.5147 18.3373 14.125 17.4194 14.125 16.3203C14.125 15.5949 13.8638 14.9847 13.3413 14.4897C12.818 13.9955 12.1936 13.7485 11.468 13.7485C10.7424 13.7485 10.1179 13.9955 9.59463 14.4897C9.0722 14.9847 8.81098 15.5949 8.81098 16.3203C8.81098 18.4525 9.42476 20.233 10.6523 21.6618C11.879 23.0906 13.4634 24.0908 15.4055 24.6623C15.5976 24.7502 15.7256 24.8654 15.7896 25.0078C15.8537 25.1511 15.8643 25.3107 15.8216 25.4866C15.779 25.6404 15.6936 25.7723 15.5655 25.8822C15.4375 25.9921 15.2774 26.0251 15.0854 25.9812C12.8659 25.3877 11.0518 24.2446 9.64329 22.552C8.23476 20.8595 7.53049 18.7822 7.53049 16.3203C7.53049 15.2212 7.91463 14.298 8.68293 13.5506C9.45122 12.8033 10.3796 12.4296 11.468 12.4296Z" fill="#8C8C8C"/>
</svg>
