<svg width="20" height="19" viewBox="0 0 20 19" fill="none" xmlns="http://www.w3.org/2000/svg">
<path d="M19.31 9.71106C19.31 8.92996 19.2467 8.35996 19.1095 7.76886H10.1901V11.2944H15.4256C15.32 12.1705 14.75 13.4899 13.4834 14.3766L13.4656 14.4946L16.2858 16.6793L16.4811 16.6988C18.2756 15.0416 19.31 12.6033 19.31 9.71106Z" fill="#4285F4"/>
<path d="M10.19 19C12.755 19 14.9083 18.1555 16.4811 16.6989L13.4833 14.3766C12.6811 14.9361 11.6044 15.3266 10.19 15.3266C7.67783 15.3266 5.54563 13.6695 4.78556 11.3789L4.67416 11.3884L1.74172 13.6578L1.70337 13.7644C3.26557 16.8677 6.47446 19 10.19 19Z" fill="#34A853"/>
<path d="M4.78556 11.3788C4.58501 10.7877 4.46895 10.1544 4.46895 9.49995C4.46895 8.84547 4.58501 8.21216 4.77501 7.62106L4.7697 7.49517L1.80052 5.18927L1.70337 5.23548C1.05951 6.52327 0.690063 7.9694 0.690063 9.49995C0.690063 11.0305 1.05951 12.4766 1.70337 13.7643L4.78556 11.3788Z" fill="#E5B26B"/>
<path d="M10.19 3.6733C11.9739 3.6733 13.1772 4.44385 13.8633 5.08778L16.5444 2.46999C14.8978 0.939445 12.755 0 10.19 0C6.47446 0 3.26557 2.1322 1.70337 5.2355L4.77501 7.62108C5.54564 5.33053 7.67783 3.6733 10.19 3.6733Z" fill="#EB4335"/>
</svg>
